<?xml version="1.0" encoding="UTF-8" standalone="no"?><!DOCTYPE svg PUBLIC "-//W3C//DTD SVG 1.1//EN" "http://www.w3.org/Graphics/SVG/1.1/DTD/svg11.dtd"><svg width="100%" height="100%" viewBox="0 0 20834 20834" version="1.1" xmlns="http://www.w3.org/2000/svg" xmlns:xlink="http://www.w3.org/1999/xlink" xml:space="preserve" xmlns:serif="http://www.serif.com/" style="fill-rule:evenodd;clip-rule:evenodd;stroke-linejoin:round;stroke-miterlimit:2;"><g><g><path d="M2924.39,17482.7l-58.237,-0" style="fill:none;fill-rule:nonzero;"/><path d="M17590.4,17482.7l-14426.3,-0l14426.3,-0Z" style="fill-rule:nonzero;"/><path d="M17969.1,17482.7l-79.084,-0" style="fill:none;fill-rule:nonzero;"/><path d="M17470.3,16617.5l-5602.79,864.667l-5015.5,-0l-1433.67,-9293.42l-448.917,-2910.93c-25.917,-168.111 89.375,-325.407 257.458,-351.325l10198.3,-1572.34c168.124,-25.917 325.416,89.35 351.333,257.459l1951.17,12654.6c25.918,168.084 -89.333,325.375 -257.416,351.292Z" style="fill:#f3fcff;fill-rule:nonzero;"/><path d="M16814.8,4370.61l-0,12804c-0,170.208 -136.625,308.041 -308.043,308.041l-10318,0c-170.209,0 -308.042,-137.833 -308.042,-308.041l0,-12804c0,-170.217 137.833,-308.067 308.042,-308.067l10318,-0c171.418,-0 308.043,137.85 308.043,308.067Z" style="fill:#fff;fill-rule:nonzero;"/><path d="M16815.3,4370.33l-0,12804.4c-0,170.083 -137.875,308 -308,308l-10319,-0c-170.084,-0 -308,-137.917 -308,-308l-0,-201.709l4160.87,0c3459.71,0 6264.38,-2804.67 6264.38,-6264.37l0,-6646.28l201.708,-0c170.125,-0 308,137.886 308,307.979Z" style="fill:#f3fcff;fill-rule:nonzero;"/><path d="M9833.34,16973l-878.874,0l1102.37,-494.833l696.417,-310.458l2362.75,-0c-241.001,136.041 -491.542,256.416 -751,360.125l-1534.92,-0l0,395.958c-0.208,0.041 -0.375,0.041 -0.583,0.083l0,-396.041l-624.874,278.749l-371.293,166.417Z" style="fill:#f2f2f2;fill-rule:nonzero;"/><path d="M10830.1,17482.6l-0.541,0l-0.042,-558.75c0.208,-0.042 0.375,-0.042 0.583,-0.083l0,558.833Zm-0.708,0l-878,0l-1066.79,-478.25l69.875,-31.375l878.874,0l-70.457,31.584l441.75,197.958l624.749,280.083Zm5985.46,-844.166c-82.792,-69.292 -189.375,-111.001 -305.501,-111.001l-237.416,0c6.417,0 12.75,0.126 19.084,0.376l-3926,-0c259.458,-103.709 509.999,-224.084 751,-360.125l3393.17,-0c107.917,-0 210.958,20.375 305.667,58.75l-0,412Z" style="fill:#e7eff2;fill-rule:nonzero;"/><path d="M7319.79,16973l-532.292,0c417.875,-324.125 727.583,-781.416 865,-1308.5l369.125,0c-112.75,500 -360.041,949.5 -701.833,1308.5Zm-59.042,-3360.79c-207.041,-282.499 -473.417,-518.75 -780.625,-690.333c-185.583,-103.208 -386.833,-183.208 -599.375,-235.5l0,-328.083c183.125,-87.458 333.125,-251.334 333.125,-558.459c-0,-283.916 -129.75,-538.041 -333.125,-706.291l0,-428.833c411.125,212.166 692.834,641.291 692.834,1135.12c-0,264.917 -81.542,487.876 -232.542,658.042c107.875,43.167 212.167,93.501 314.041,149.834c407.917,227.75 744.75,549.291 989.292,929l-176.167,-0c-78.999,-0 -151.374,28.375 -207.458,75.499Zm-1380,-1596.62l0,-490.167c37.584,81.541 58.583,172.25 58.583,267.792c0,79.791 -11.666,157.292 -58.583,222.375Z" style="fill:#f2f2f2;fill-rule:nonzero;"/><path d="M6665.88,17482.6l-477.083,0c-86.792,0 -165.167,-35.833 -221.125,-93.541c301.208,-86.167 578.5,-228.876 819.833,-416.084l532.292,0c-190.834,200.459 -411.125,372.625 -653.917,509.625Z" style="fill:#e7eff2;fill-rule:nonzero;"/><path d="M9273.34,6288l-0,1482.5c-0,178.208 -144.417,322.667 -322.626,322.667l-1482.5,0c-178.208,0 -322.666,-144.459 -322.666,-322.667l0,-1482.5c0,-178.167 144.458,-322.626 322.666,-322.626l1482.5,0c178.209,0 322.626,144.459 322.626,322.626Z" style="fill:#00ffc1;fill-rule:nonzero;"/><path d="M8950.71,8092.62l-1482.5,0c-177.458,0 -322.666,-143.583 -322.666,-322.666l0,-322.625c0,179.083 145.208,322.625 322.666,322.625l1482.5,-0c177.459,-0 322.626,-143.542 322.626,-322.625l-0,322.625c-0,179.083 -145.167,322.666 -322.626,322.666Z" style="fill:#0bdbb3;fill-rule:nonzero;"/><path d="M5297.34,11151.3c-353.958,-0 -641.958,287.916 -641.958,641.875c0,206.292 77.708,397.249 641.958,397.249c564.251,0 642,-190.957 642,-397.249c0,-353.959 -288.041,-641.875 -642,-641.875Zm0,1307.04c-226.708,0 -916.541,0 -916.541,-658.542c-0,-505.333 411.208,-916.416 916.541,-916.416c505.334,0 916.542,411.083 916.542,916.416c-0,658.542 -689.791,658.542 -916.542,658.542Z" style="fill:#00c5ea;fill-rule:nonzero;"/><path d="M5697,12476l0,234.917l-799.333,0l-0,-234.917c-0,-41.541 5.708,-81.667 17.167,-118.917c51.583,-163.291 203.416,-282.208 382.499,-282.208c110.292,0 210.584,44.417 282.209,117.458c31.5,30.084 57.291,67.334 75.917,107.459c10.041,18.625 17.166,37.25 24.333,57.291c11.5,37.25 17.208,77.376 17.208,118.917Z" style="fill:#00c5ea;fill-rule:nonzero;"/><path d="M5697,12648.7c-129.958,-21.458 -263.458,-32.708 -399.667,-32.708c-136.166,-0 -269.624,11.166 -399.666,32.666l-0,-172.625c-0,-41.541 5.708,-81.667 17.167,-118.917c124.624,-18.624 253.583,-27.208 382.499,-27.208c128.917,-0 256.417,8.584 382.459,27.208c11.5,37.25 17.208,77.376 17.208,118.917l0,172.667Z" style="fill:#06b9df;fill-rule:nonzero;"/><path d="M7730.46,15049.1c-0,1344.62 -1090.29,2433.12 -2433.13,2433.12c-563.791,-0 -1081.37,-190.292 -1494.02,-510.459c-570.926,-446.417 -939.096,-1141.83 -939.096,-1922.67c-0,-1342.83 1088.5,-2433.12 2433.12,-2433.12c430.417,-0 834.167,112.041 1182.79,305.916c745.208,416.208 1250.33,1213 1250.33,2127.21Z" style="fill:#00c5ea;fill-rule:nonzero;"/><path d="M3605.45,16774.6c-41.421,-31.709 -80.2,-64.834 -118.967,-100.751c17.151,19.584 34.642,38.792 52.459,57.709c-417.654,-437.041 -674.446,-1030.29 -674.446,-1682.96c0,-1342.5 1088.38,-2432.08 2433.25,-2432.08c430.333,0 834.25,111.458 1181.88,305.667c243.334,135.459 460.292,311.625 642.459,519c-0.167,-0.166 -0.334,-0.333 -0.542,-0.458c-63.834,-72 -131.917,-140.167 -203.792,-204.125c33.708,37.5 66.25,76.083 97.625,115.666c-100.458,-79.166 -207.042,-150.666 -318.791,-213.125c-347.626,-194.208 -751.542,-305.666 -1181.88,-305.666c-1344.88,-0 -2433.26,1089.58 -2433.26,2433.25c0,569.041 195.829,1093.46 524,1507.88Z" style="fill:#80e2f5;fill-rule:nonzero;"/><path d="M5297.04,17482.7c-276.75,-0 -542.333,-46.167 -789.875,-131c247.625,84.624 513.333,130.5 790.166,130.5c232.209,-0 456.876,-32.542 669.625,-93.334c0.084,0.084 0.209,0.209 0.292,0.334c-212.958,60.875 -437.792,93.5 -670.208,93.5Z" style="fill:#f2f2f2;fill-rule:nonzero;"/><path d="M5967.25,17389.2c-0.083,-0.125 -0.208,-0.25 -0.292,-0.334c0.125,-0.041 0.251,-0.083 0.376,-0.125c0.124,0.125 0.208,0.209 0.333,0.334c-0.084,-0 -0.333,0.083 -0.417,0.125Z" style="fill:#e7eff2;fill-rule:nonzero;"/><path d="M6787.5,16973l-0.542,0c417.959,-324.083 727.667,-781.458 865,-1308.5l0.542,0c-137.417,527.084 -447.125,984.375 -865,1308.5Z" style="fill:#e6e6e6;fill-rule:nonzero;"/><path d="M5967.67,17389.1c-0.125,-0.125 -0.209,-0.209 -0.333,-0.334c301.125,-86.083 578.416,-228.708 819.624,-415.75l0.542,0c-241.333,187.208 -518.625,329.917 -819.833,416.084Z" style="fill:#dbe3e6;fill-rule:nonzero;"/><path d="M7652.5,15664.5l-0.542,0c0.042,-0.166 0.125,-0.416 0.167,-0.541l0.542,-0c-0.042,0.125 -0.125,0.375 -0.167,0.541Zm61.167,-323.208l-0.583,0c11.458,-95.792 17.375,-193.292 17.375,-292.208c-0,-68.459 -2.834,-136.333 -8.375,-203.334c0.208,-0.083 0.416,-0.125 0.624,-0.166c5.542,66.958 8.375,134.666 8.375,203.083c0,99.041 -5.916,196.708 -17.416,292.625Z" style="fill:#f2dd3b;fill-rule:nonzero;"/><path d="M7652.67,15664l-0.542,-0c27.333,-105 47.792,-212.625 60.959,-322.667l0.583,0c-13.167,110.042 -33.667,217.667 -61,322.667Z" style="fill:#ccbf47;fill-rule:nonzero;"/><path d="M7522.63,14064.1c-43.5,-98.083 -93.333,-192.833 -148.917,-283.583c55.709,90.667 105.626,185.25 149.209,283.292c-0.084,0.083 -0.209,0.208 -0.292,0.291Z" style="fill:#f2dd3b;fill-rule:nonzero;"/><path d="M7722.09,14845.7c-22.917,-276.208 -91.959,-539.249 -199.459,-781.625c0.083,-0.083 0.208,-0.208 0.292,-0.291c107.75,242.249 176.916,505.458 199.791,781.75c-0.208,0.041 -0.416,0.083 -0.624,0.166Z" style="fill:#f2e897;fill-rule:nonzero;"/><path d="M3693.97,16880.1c-53.821,-47.208 -105.559,-96.791 -155.021,-148.541c-17.817,-18.917 -35.308,-38.125 -52.459,-57.709c38.767,35.917 77.546,69.042 118.967,100.751c28.521,36.041 58.034,71.208 88.513,105.499Zm3427.58,-3439.37c-34.542,-30.459 -69.958,-59.958 -106.167,-88.459c-31.375,-39.583 -63.917,-78.166 -97.625,-115.666c71.875,63.958 139.958,132.125 203.792,204.125Z" style="fill:#79d6e9;fill-rule:nonzero;"/><path d="M7196.88,15049.1c0,1051.17 -850.167,1899.54 -1899.54,1899.54c-629.625,0 -1184.54,-304.124 -1531.37,-771.916c-231.213,-316.583 -368.171,-704.292 -368.171,-1127.62c-0,-1049.38 848.417,-1899.54 1899.54,-1899.54c421.542,-0 812.834,138.75 1127.62,369.958c467.792,346.833 771.917,901.75 771.917,1529.58Z" style="fill:#d4f4ff;fill-rule:nonzero;"/><path d="M6793.13,14645.3c0,1051.17 -850.166,1899.54 -1899.54,1899.54c-421.499,0 -812.812,-136.916 -1127.62,-368.166c-231.213,-316.583 -368.171,-704.292 -368.171,-1127.62c-0,-1049.38 848.417,-1899.54 1899.54,-1899.54c421.542,-0 812.834,138.75 1127.62,369.958c231.209,314.792 368.167,704.333 368.167,1125.83Z" style="fill:#fff;fill-rule:nonzero;"/><path d="M5519.21,15017c0,121.875 -100,220.333 -221.875,220.333c-121.875,-0 -221.875,-98.458 -221.875,-220.333c0,-123.458 100,-221.875 221.875,-221.875c121.875,-0 221.875,98.417 221.875,221.875Z" style="fill:#a4bcd1;fill-rule:nonzero;"/><path d="M2924.34,17422.8l-58.175,-0c-33.125,-0 -59.934,26.792 -59.934,59.917c0,33.125 26.809,59.958 59.934,59.958l58.175,-0c33.129,-0 59.933,-26.833 59.933,-59.958c0,-33.125 -26.804,-59.917 -59.933,-59.917Z" style="fill:#384b7d;fill-rule:nonzero;"/><path d="M17969.2,17422.8l-79.126,-0c-33.124,-0 -59.957,26.792 -59.957,59.917c0,33.125 26.833,59.958 59.957,59.958l79.126,-0c33.124,-0 59.916,-26.833 59.916,-59.958c0,-33.125 -26.792,-59.917 -59.916,-59.917Z" style="fill:#384b7d;fill-rule:nonzero;"/><path d="M17461.6,16558l-557.162,86.459c-9.166,-10.084 -18.292,-20.042 -28.208,-29.376l-0,-5477.25l791.75,5137.46c21.334,134.501 -70.376,262.334 -206.38,282.709Zm-952.579,864.75l-202.958,-0l-0,-835l202.958,0c230.125,0 417.417,187.25 417.417,417.458c0,230.25 -187.292,417.542 -417.417,417.542Zm-596.166,-0l-0,-835l273.333,0l-0,835l-273.333,-0Zm-119.875,-835l-0,835l-4902.96,-0.042l-0,-834.958l4902.96,0Zm-5569.46,277l546.625,-244.458l0,769.791l-546.916,-244.875c30.708,-101.749 30.874,-178.541 0.291,-280.458Zm-4121.33,541.5c770.292,-263.833 1370.38,-893.667 1592.75,-1682.04l1255.79,-0c210.834,-0 382.417,-171.542 382.417,-382.376l-0,-1384.04l148.334,-148.334c23.416,-23.375 23.416,-61.333 -0,-84.75c-23.417,-23.374 -61.334,-23.374 -84.751,0l-70.083,70.084c-30.833,-180.167 -187.125,-318.042 -375.917,-318.042l-1482.75,-0c-68.375,-0 -135.542,19.083 -194.584,53.959c-203.916,-265.75 -461.875,-492.459 -764.083,-661.251c-179.292,-99.666 -370.583,-176.042 -568.417,-228.708l0,-248.708c54.084,-28.917 103.625,-61.792 144.667,-100.792c125.125,-120.542 188.583,-285.875 188.583,-491.375c0,-284.125 -123.125,-550.458 -333.25,-732.25l0,-6696.99c0,-136.776 111.334,-248.096 248.167,-248.096l10319.1,0c136.875,0 248.167,111.32 248.167,248.096l-0,12160.4c-74.376,-38.999 -157.667,-63.166 -247.334,-63.166l-5678.96,0c-8.542,0 -16.584,1.875 -23.959,5.125l-0.499,0.083l-1066.71,477.126c-21.542,9.624 -35.5,31.041 -35.5,54.708c0,23.583 13.958,45.083 35.5,54.708l810.792,363.125l-4360.62,-0c-30.167,-0 -59.375,-6.25 -86.875,-16.5Zm3111.12,-3328.58l-0,1264.17c-0,144.75 -117.792,262.5 -262.584,262.5l-1224.88,0c40.876,-178.875 64.501,-364.208 64.501,-555.291c-0,-95.334 -6.626,-189.667 -17.375,-283.084l333.666,333.625c23.417,23.417 61.375,23.417 84.75,0l1021.92,-1021.92Zm-0,-169.5l-1064.29,1064.33l-406.5,-406.542c-67.042,-338.416 -203.583,-657.291 -398.041,-937.708c38.041,-20.458 79.791,-31.625 123.5,-31.625l1482.75,-0c144.792,-0 262.584,117.75 262.584,262.541l-0,49Zm-6289.18,1140.88c-0,-1308.58 1064.62,-2373.21 2373.18,-2373.21c403.708,0 802.666,103.209 1153.58,298.334c587.292,328 999.625,884.791 1152.83,1522.08c-3.167,2.125 -6.667,3.459 -9.417,6.25c-23.417,23.417 -23.417,61.333 -0,84.75l36.542,36.541c268.666,1469.96 -869.125,2798.42 -2333.54,2798.42c-533.542,0 -1037.46,-172.125 -1457.1,-497.708c-582.117,-455.292 -916.079,-1138.88 -916.079,-1875.46Zm2032.68,-2573.12c-0,-452.376 680.917,-441.584 680.917,-0l-0,104.041c-112.584,-15.5 -226.251,-23.958 -340.417,-23.958c-115.792,-0 -228.875,10.667 -340.5,26.041l-0,-106.124Zm67.208,-367.333c-281.833,-51.042 -308.125,-183.459 -308.125,-315.917c0,-320.542 260.792,-581.376 581.417,-581.376c223.625,0 427.333,129.251 523.708,330.376l0,450.5c-47.208,56.167 -129.291,94.542 -249.583,116.542c-159.375,-117.293 -391.875,-116.334 -547.417,-0.125Zm733.542,490.541l0,-123.208c0,-3.542 -0.75,-6.376 -0.834,-9.875c21.75,-6.126 43.501,-12.167 64.292,-19.626l0,166.209c-21.167,-4.542 -42.166,-9.542 -63.458,-13.5Zm-1317.33,-799.25c-0,-472.583 384.541,-857.042 857.083,-857.042c193.375,0 376.708,63.584 532.042,185.459c4.041,3.167 10.416,8.874 13.541,11.833c197.834,162.958 311.375,403.375 311.375,659.75c0,171.666 -51.041,307.958 -151.583,404.833c-40.25,38.251 -89.792,71.334 -147.709,98.5c-35.875,17.208 -75.791,31.292 -116.708,43.625c-14,-49.333 -36.083,-95.916 -66.333,-138.041c113.791,-31.208 196.166,-80.625 249.583,-149.584c1.25,-1.167 2.333,-2.417 3.5,-3.708c1.292,-1.709 3.25,-3.041 4.5,-4.792c2.583,-3.541 3.75,-7.417 6.167,-11.041l0.541,-1c55.417,-84.208 63.417,-179.917 63.417,-246c0,-102 -21.458,-199.376 -63.375,-288.876c-0.208,-0.583 -0.75,-1.875 -0.75,-1.958c-113.208,-249.333 -363.708,-410.375 -638.208,-410.375c-386.625,0 -701.292,314.583 -701.292,701.209c0,155.874 40.667,338.374 328.25,416.833c-30.458,42.25 -53.458,88.375 -67.291,137.125c-278.959,-81.917 -416.75,-260.417 -416.75,-546.75Zm634.083,-6716.2c39.125,-53.204 96.25,-87.85 161.333,-97.626l585.375,-90.096l0,5509.84l-791.75,-5137.11c-10.291,-65.662 5.709,-131.334 45.042,-185.004Zm10359.5,-1670.27c135.208,-21.887 262.791,72.105 284,207.601l58.874,381.663l-4163.5,0l3820.63,-589.264Zm1442.38,6937.55l-0,-5980.33c-0,-202.914 -165.042,-367.959 -368.042,-367.959l-610.167,0l-61.708,-400.099c-31.501,-200.985 -221,-338.469 -420.834,-307.622l-4588.58,707.721l-4637.83,0c-203,0 -368.042,165.045 -368.042,367.959l0,404.049l-603.417,92.854c-96.708,14.512 -181.791,66.075 -239.833,145.209c-58.542,79.596 -82.208,177.104 -66.958,274.376l873.625,5668.05c-148.042,-85.834 -313.584,-132.209 -487.125,-132.209c-538.667,0 -976.958,438.292 -976.958,976.917c-0,342.833 179.958,570.875 517.541,665.541c-0.083,3.501 -0.958,7 -0.958,10.501l-0,124.458c-1155.25,216.833 -2032.67,1231.42 -2032.67,2448.67c-0,773.75 350.696,1491.71 962.312,1970.04c233.659,181.292 492.609,315.834 767.401,403.667l-1369.88,-0c-33.129,-0 -59.933,26.792 -59.933,59.917c-0,33.125 26.804,59.958 59.933,59.958l14426.3,-0c33.126,-0 59.916,-26.833 59.916,-59.958c0,-33.125 -26.79,-59.917 -59.916,-59.917l-747.291,-0c122.833,-98.583 203.208,-248.125 203.208,-417.542c0,-91.25 -25,-176 -65.334,-251.333l498.667,-77.375c200.667,-30.125 338.458,-218.75 306.793,-419.625l-910.209,-5905.92Z" style="fill:#384b7d;fill-rule:nonzero;"/><path d="M9213.38,11187.4c-0,144.875 -117.875,262.75 -262.667,262.75l-1482.5,0c-144.791,0 -262.666,-117.875 -262.666,-262.75l-0,-1482.5c-0,-144.875 117.875,-262.667 262.666,-262.667l1482.5,-0c144.792,-0 262.667,117.792 262.667,262.667l-0,48.75l-1064.38,1064.46l-469.958,-470.001c-23.417,-23.417 -61.334,-23.417 -84.75,0c-23.417,23.417 -23.417,61.334 -0,84.75l512.333,512.376c23.417,23.374 61.375,23.374 84.75,-0l1022,-1022.08l-0,1264.25Zm183.333,-1617.04l-69.958,69.958c-30.917,-180.125 -187.208,-317.957 -376.042,-317.957l-1482.5,-0c-210.916,-0 -382.541,171.583 -382.541,382.541l0,1482.5c0,211 171.625,382.583 382.541,382.583l1482.5,0c210.959,0 382.542,-171.583 382.542,-382.583l0,-1384.12l148.209,-148.209c23.416,-23.374 23.416,-61.333 -0,-84.708c-23.417,-23.416 -61.334,-23.416 -84.751,-0Z" style="fill:#384b7d;fill-rule:nonzero;"/><path d="M15550.9,9951.5l-5463.83,-0c-33.125,-0 -59.916,26.791 -59.916,59.916c-0,33.125 26.791,59.959 59.916,59.959l5463.83,-0c33.125,-0 59.917,-26.834 59.917,-59.959c-0,-33.125 -26.792,-59.916 -59.917,-59.916Z" style="fill:#384b7d;fill-rule:nonzero;"/><path d="M10087.1,10940.8l4387.04,-0c33.125,-0 59.917,-26.792 59.917,-59.917c-0,-33.125 -26.792,-59.958 -59.917,-59.958l-4387.04,-0c-33.125,-0 -59.916,26.833 -59.916,59.958c-0,33.125 26.791,59.917 59.916,59.917Z" style="fill:#384b7d;fill-rule:nonzero;"/><path d="M15550.9,14105.9l-5463.83,-0c-33.125,-0 -59.916,26.792 -59.916,59.917c-0,33.125 26.791,59.917 59.916,59.917l5463.83,-0c33.125,-0 59.917,-26.792 59.917,-59.917c-0,-33.125 -26.792,-59.917 -59.917,-59.917Z" style="fill:#384b7d;fill-rule:nonzero;"/><path d="M14474.1,14975.4l-4387.04,0c-33.125,0 -59.916,26.834 -59.916,59.959c-0,33.125 26.791,59.916 59.916,59.916l4387.04,0c33.125,0 59.917,-26.791 59.917,-59.916c-0,-33.125 -26.792,-59.959 -59.917,-59.959Z" style="fill:#384b7d;fill-rule:nonzero;"/><path d="M9213.38,7770.5c-0,144.875 -117.875,262.75 -262.667,262.75l-1482.5,0c-144.791,0 -262.666,-117.875 -262.666,-262.75l-0,-1482.5c-0,-144.875 117.875,-262.75 262.666,-262.75l1482.5,-0c144.792,-0 262.667,117.875 262.667,262.75l-0,48.75l-1064.38,1064.37l-469.958,-469.916c-23.417,-23.417 -61.334,-23.417 -84.75,-0c-23.417,23.417 -23.417,61.333 -0,84.75l512.333,512.291c11.709,11.709 27.042,17.584 42.375,17.584c15.333,-0 30.667,-5.875 42.375,-17.584l1022,-1022l-0,1264.25Zm183.333,-1617.04l-69.958,69.958c-30.917,-180.166 -187.208,-318 -376.042,-318l-1482.5,0c-210.916,0 -382.541,171.583 -382.541,382.584l0,1482.5c0,211.001 171.625,382.625 382.541,382.625l1482.5,0c210.959,0 382.542,-171.624 382.542,-382.625l0,-1384.12l148.209,-148.167c23.416,-23.416 23.416,-61.333 -0,-84.749c-23.417,-23.417 -61.334,-23.417 -84.751,-0Z" style="fill:#384b7d;fill-rule:nonzero;"/><path d="M10027.2,6594.5c-0,33.126 26.791,59.959 59.916,59.959l5463.83,-0c33.125,-0 59.917,-26.833 59.917,-59.959c-0,-33.125 -26.792,-59.916 -59.917,-59.916l-5463.83,-0c-33.125,-0 -59.916,26.791 -59.916,59.916Z" style="fill:#384b7d;fill-rule:nonzero;"/><path d="M10087.1,7523.92l4387.04,-0c33.125,-0 59.917,-26.791 59.917,-59.916c-0,-33.126 -26.792,-59.917 -59.917,-59.917l-4387.04,-0c-33.125,-0 -59.916,26.791 -59.916,59.917c-0,33.125 26.791,59.916 59.916,59.916Z" style="fill:#384b7d;fill-rule:nonzero;"/><path d="M3456.83,15049.1c0,-1014.83 825.588,-1840.46 1840.46,-1840.46c1014.88,-0 1840.58,825.624 1840.58,1840.46c0,1014.88 -825.708,1840.5 -1840.58,1840.5c-1014.88,-0 -1840.46,-825.625 -1840.46,-1840.5Zm3800.92,-0c0,-1080.96 -879.458,-1960.33 -1960.46,-1960.33c-1080.88,0 -1960.33,879.376 -1960.33,1960.33c-0,1080.96 879.45,1960.38 1960.33,1960.38c1081,-0 1960.46,-879.417 1960.46,-1960.38Z" style="fill:#384b7d;fill-rule:nonzero;"/><path d="M5297.29,13766.6c33.125,0 59.916,-26.833 59.916,-59.958l0,-170.417c0,-33.125 -26.791,-59.916 -59.916,-59.916c-33.125,-0 -59.917,26.791 -59.917,59.916l0,170.417c0,33.125 26.792,59.958 59.917,59.958Z" style="fill:#384b7d;fill-rule:nonzero;"/><path d="M5357.21,16561.9l0,-170.459c0,-33.124 -26.791,-59.916 -59.916,-59.916c-33.125,0 -59.917,26.792 -59.917,59.916l0,170.459c0,33.125 26.792,59.917 59.917,59.917c33.125,-0 59.916,-26.792 59.916,-59.917Z" style="fill:#384b7d;fill-rule:nonzero;"/><path d="M4305.71,14142.2c11.709,11.708 27.042,17.542 42.376,17.542c15.333,-0 30.666,-5.834 42.374,-17.542c23.417,-23.416 23.417,-61.333 0,-84.75l-120.458,-120.499c-23.375,-23.417 -61.333,-23.417 -84.75,-0c-23.396,23.416 -23.396,61.333 0,84.749l120.458,120.5Z" style="fill:#384b7d;fill-rule:nonzero;"/><path d="M6324.71,16161.2c11.708,11.708 27.041,17.583 42.374,17.583c15.334,0 30.667,-5.875 42.376,-17.583c23.375,-23.417 23.375,-61.334 -0,-84.75l-120.459,-120.5c-23.417,-23.417 -61.333,-23.417 -84.75,-0c-23.416,23.416 -23.416,61.333 0,84.75l120.459,120.5Z" style="fill:#384b7d;fill-rule:nonzero;"/><path d="M3954.9,14989.1l-170.433,0c-33.125,0 -59.929,26.833 -59.929,59.959c-0,33.125 26.804,59.916 59.929,59.916l170.433,0c33.129,0 59.933,-26.791 59.933,-59.916c0,-33.126 -26.804,-59.959 -59.933,-59.959Z" style="fill:#384b7d;fill-rule:nonzero;"/><path d="M6639.79,15109l170.458,0c33.125,0 59.917,-26.791 59.917,-59.916c-0,-33.126 -26.792,-59.959 -59.917,-59.959l-170.458,0c-33.125,0 -59.917,26.833 -59.917,59.959c0,33.125 26.792,59.916 59.917,59.916Z" style="fill:#384b7d;fill-rule:nonzero;"/><path d="M4305.84,15955.9l-120.584,120.542c-23.396,23.416 -23.396,61.333 0,84.75c11.709,11.708 27.042,17.583 42.375,17.583c15.333,0 30.667,-5.875 42.375,-17.583l120.583,-120.542c23.417,-23.417 23.417,-61.333 0,-84.75c-23.416,-23.417 -61.333,-23.417 -84.749,0Z" style="fill:#384b7d;fill-rule:nonzero;"/><path d="M6289,14142.2l120.459,-120.583c23.375,-23.416 23.375,-61.375 -0,-84.75c-23.417,-23.417 -61.334,-23.417 -84.75,0l-120.459,120.583c-23.416,23.417 -23.416,61.375 0,84.75c23.417,23.417 61.333,23.417 84.75,0Z" style="fill:#384b7d;fill-rule:nonzero;"/><path d="M5297.29,14855c30.75,0 59.208,9.084 83.708,24l0.792,0.75c0.416,0.25 0.875,0.125 1.25,0.375c45.625,28.667 76.25,79.083 76.25,136.834c-0,88.416 -72.667,160.417 -162,160.417c-89.292,-0 -161.875,-72.001 -161.875,-160.417c-0,-89.334 72.583,-161.959 161.875,-161.959Zm-0,442.25c155.458,0 281.875,-125.75 281.875,-280.291c-0,-79.375 -33.25,-150.875 -86.208,-202.167l375.458,-602.708c17.416,-28.125 8.875,-65.042 -19.208,-82.542c-27.959,-17.209 -65.084,-9 -82.626,19.208l-375.958,603.5c-29.333,-10.375 -60.458,-17.124 -93.333,-17.124c-155.334,-0 -281.75,126.416 -281.75,281.833c-0,78.875 33.166,149.958 86.083,200.916l-55.417,88.667c-17.541,28.084 -8.999,65.084 19.084,82.583c9.833,6.209 20.833,9.125 31.708,9.125c19.917,0 39.458,-9.958 50.833,-28.166l56.167,-89.875c29.375,10.333 60.458,17.041 93.292,17.041Z" style="fill:#384b7d;fill-rule:nonzero;"/></g></g></svg>